<?xml version="1.0" encoding="UTF-8" standalone="no"?>
<svg
   xmlns:dc="http://purl.org/dc/elements/1.1/"
   xmlns:cc="http://creativecommons.org/ns#"
   xmlns:rdf="http://www.w3.org/1999/02/22-rdf-syntax-ns#"
   xmlns:svg="http://www.w3.org/2000/svg"
   xmlns="http://www.w3.org/2000/svg"
   xmlns:sodipodi="http://sodipodi.sourceforge.net/DTD/sodipodi-0.dtd"
   xmlns:inkscape="http://www.inkscape.org/namespaces/inkscape"
   viewBox="0 0 128 128"
   width="128"
   height="128"
   version="1.1"
   id="svg8"
   sodipodi:docname="ic_Mine_128px.svg"
   inkscape:version="1.0.1 (3bc2e813f5, 2020-09-07)">
  <metadata
     id="metadata14">
    <rdf:RDF>
      <cc:Work
         rdf:about="">
        <dc:format>image/svg+xml</dc:format>
        <dc:type
           rdf:resource="http://purl.org/dc/dcmitype/StillImage" />
        <dc:title></dc:title>
      </cc:Work>
    </rdf:RDF>
  </metadata>
  <defs
     id="defs12" />
  <sodipodi:namedview
     pagecolor="#ffffff"
     bordercolor="#666666"
     borderopacity="1"
     objecttolerance="10"
     gridtolerance="10"
     guidetolerance="10"
     inkscape:pageopacity="0"
     inkscape:pageshadow="2"
     inkscape:window-width="3840"
     inkscape:window-height="2068"
     id="namedview10"
     showgrid="false"
     inkscape:zoom="3.359375"
     inkscape:cx="17.447114"
     inkscape:cy="37.924064"
     inkscape:window-x="-12"
     inkscape:window-y="-12"
     inkscape:window-maximized="1"
     inkscape:current-layer="svg8"
     inkscape:document-rotation="0" />
  <style
     id="style2">
        tspan { white-space:pre }
        .shp0 { fill: #303030 }
        .shp1 { fill: #cfcfcf }
    </style>
  <path
     id="path933"
     style="opacity:1;fill:#ff0000;fill-opacity:1;stroke:none;stroke-width:0.125;stroke-miterlimit:4;stroke-dasharray:none;stroke-opacity:1"
     d="M 111.52539 0.88085938 C 111.1367 0.87064359 110.65753 0.88013312 110.05664 0.90039062 C 104.64507 1.0828326 98.683418 2.8127717 92.111328 6.109375 C 88.033196 8.154995 84.519753 10.362849 80.539062 13.380859 C 80.455421 13.444274 79.726273 12.890826 78.626953 11.929688 C 76.640413 10.192855 76.018408 9.8632812 74.736328 9.8632812 C 73.561898 9.8632813 72.801191 10.223913 71.400391 11.443359 C 68.642721 13.844011 68.242188 14.364712 68.242188 15.550781 C 68.242188 16.224307 68.534352 16.970025 69.007812 17.507812 C 69.168492 17.690328 69.889448 18.356774 70.611328 18.990234 C 71.333198 19.623693 72.027857 20.241148 72.154297 20.361328 C 72.375847 20.571922 72.344147 20.622605 71.279297 21.755859 C 63.309687 30.23737 58.460457 39.557837 58.148438 46.992188 C 58.066368 48.947681 58.176454 49.317304 58.958984 49.730469 C 59.215544 49.865933 59.57119 49.979422 59.75 49.982422 C 60.5241 49.995577 60.834579 49.746817 62.136719 48.070312 C 65.940749 43.172618 69.921835 38.609058 74.359375 34.058594 C 86.346791 21.766151 99.358239 11.36203 112.01758 3.9453125 C 113.58867 3.0248605 113.8936 2.5132536 113.37695 1.6660156 C 113.03893 1.1116906 112.69146 0.91150672 111.52539 0.88085938 z M 57.765625 16.453125 L 53.220703 16.546875 C 50.720973 16.598378 48.079966 16.676813 47.353516 16.720703 L 46.033203 16.800781 L 49.632812 26.863281 C 51.612423 32.397656 53.386009 37.347656 53.574219 37.863281 C 53.762439 38.378906 53.930719 38.716406 53.949219 38.613281 C 53.967719 38.510156 54.799908 33.644531 55.798828 27.800781 C 56.797758 21.957031 57.648553 17.012968 57.689453 16.814453 L 57.765625 16.453125 z M 35.785156 21.748047 C 35.714976 21.669246 25.605478 26.656833 25.642578 26.751953 C 25.660458 26.797797 29.724718 30.443049 34.673828 34.853516 C 39.622938 39.263982 43.687631 42.825688 43.707031 42.767578 C 43.738181 42.674125 35.900236 21.877268 35.785156 21.748047 z M 93.597656 25.132812 C 93.426206 25.069746 89.644198 28.325904 86.548828 31.203125 C 85.568358 32.114501 85.555247 32.137536 85.804688 32.341797 C 85.944617 32.456378 93.219074 38.907031 101.9707 46.675781 C 110.72233 54.444531 118.09069 60.924938 118.3457 61.078125 C 118.60072 61.23131 119.11689 61.403404 119.49219 61.458984 C 120.36383 61.588062 121.35071 61.43707 122.09375 61.060547 C 122.41516 60.897675 123.46888 60.061082 124.43555 59.203125 C 125.87907 57.921952 126.24139 57.531126 126.46484 57.011719 C 126.81286 56.20283 126.82086 55.241838 126.48633 54.550781 C 126.28978 54.144768 122.75923 50.947331 109.97461 39.603516 C 101.03053 31.667417 93.661256 25.156202 93.597656 25.132812 z M 9.1347656 31.996094 C 8.4899319 32.006319 7.8412312 32.068993 7.3632812 32.181641 C 4.7558213 32.796185 2.6613144 34.718173 2.0527344 37.054688 C 1.8827344 37.707428 1.8613281 42.455536 1.8613281 79.558594 C 1.8613281 106.83823 1.9048281 121.56221 1.9863281 122.00195 C 2.5162081 124.85961 5.3758169 127.26413 8.6542969 127.60938 C 10.007857 127.7523 117.33023 127.75571 118.68164 127.61328 C 120.25375 127.44759 121.31524 127.08783 122.42773 126.34375 C 123.981 125.30486 125.06123 123.64987 125.36719 121.83594 C 125.79721 119.28645 124.31194 116.5961 121.76758 115.31641 C 121.30432 115.08341 118.19571 113.69747 114.86133 112.23828 C 111.52696 110.77909 108.43321 109.37158 107.98633 109.10938 C 107.47581 108.80982 104.5722 106.32097 100.17383 102.41406 C 96.323829 98.994246 92.895247 95.975018 92.554688 95.705078 C 91.858828 95.153508 90.552 94.462617 89.798828 94.248047 C 89.523828 94.169697 84.796265 93.604014 79.292969 92.990234 C 71.006089 92.066004 69.114533 91.819259 68.283203 91.556641 C 66.107653 90.869384 64.250124 89.181369 63.433594 87.150391 C 63.273074 86.751113 62.144971 82.150781 60.925781 76.925781 C 58.562451 66.797403 58.504558 66.607375 57.486328 65.453125 C 56.873158 64.758049 55.637119 63.846549 54.818359 63.484375 C 54.503659 63.345165 52.262037 62.553169 49.835938 61.724609 C 47.409828 60.896049 45.012746 60.011565 44.509766 59.759766 C 43.307386 59.157826 42.294716 58.324419 41.660156 57.414062 C 41.339826 56.954515 40.048944 54.175827 38.240234 50.050781 C 36.642564 46.407031 35.250884 43.257031 35.146484 43.050781 C 34.556804 41.885773 33.299155 40.713131 31.859375 39.986328 C 30.859145 39.481415 11.674379 32.292087 10.886719 32.126953 C 10.420804 32.029273 9.7795994 31.985868 9.1347656 31.996094 z M 91.943359 45.160156 C 91.928229 45.148586 69.461178 55.220639 69.048828 55.423828 C 68.980078 55.457708 74.576952 55.451236 81.486328 55.410156 C 88.395708 55.369077 94.072209 55.314642 94.099609 55.289062 C 94.140629 55.250732 92.002059 45.205076 91.943359 45.160156 z M 65.636719 62.427734 C 65.615609 62.445964 68.730414 66.650088 72.558594 71.771484 L 79.519531 81.083984 L 83.695312 77.515625 C 85.992342 75.553057 87.827538 73.903993 87.773438 73.851562 C 87.632728 73.715199 65.682919 62.387834 65.636719 62.427734 z " />
</svg>
