<?xml version="1.0" encoding="UTF-8" standalone="no"?>
<svg
        xmlns:dc="http://purl.org/dc/elements/1.1/"
        xmlns:cc="http://creativecommons.org/ns#"
        xmlns:rdf="http://www.w3.org/1999/02/22-rdf-syntax-ns#"
        xmlns="http://www.w3.org/2000/svg"
        xmlns:sodipodi="http://sodipodi.sourceforge.net/DTD/sodipodi-0.dtd"
        xmlns:inkscape="http://www.inkscape.org/namespaces/inkscape"
        viewBox="0 0 128 128"
        width="128"
        height="128"
        version="1.1"
        id="svg8"
        sodipodi:docname="ic_NoMine_128px.svg"
        inkscape:version="1.0.1 (3bc2e813f5, 2020-09-07)">
    <metadata
            id="metadata14">
        <rdf:RDF>
            <cc:Work
                    rdf:about="">
                <dc:format>image/svg+xml</dc:format>
                <dc:type
                        rdf:resource="http://purl.org/dc/dcmitype/StillImage"/>
            </cc:Work>
        </rdf:RDF>
    </metadata>
    <defs
            id="defs12"/>
    <sodipodi:namedview
            pagecolor="#ffffff"
            bordercolor="#666666"
            borderopacity="1"
            objecttolerance="10"
            gridtolerance="10"
            guidetolerance="10"
            inkscape:pageopacity="0"
            inkscape:pageshadow="2"
            inkscape:window-width="1918"
            inkscape:window-height="1001"
            id="namedview10"
            showgrid="false"
            inkscape:zoom="3.359375"
            inkscape:cx="17.447114"
            inkscape:cy="37.924064"
            inkscape:window-x="1909"
            inkscape:window-y="0"
            inkscape:window-maximized="0"
            inkscape:current-layer="svg8"
            inkscape:document-rotation="0"/>
    <style
            id="style2">
        tspan { white-space:pre }
        .shp0 { fill: #303030 }
        .shp1 { fill: #cfcfcf }
    </style>
    <path
            style="color:#000000;font-style:normal;font-variant:normal;font-weight:normal;font-stretch:normal;font-size:medium;line-height:normal;font-family:sans-serif;font-variant-ligatures:normal;font-variant-position:normal;font-variant-caps:normal;font-variant-numeric:normal;font-variant-alternates:normal;font-variant-east-asian:normal;font-feature-settings:normal;font-variation-settings:normal;text-indent:0;text-align:start;text-decoration:none;text-decoration-line:none;text-decoration-style:solid;text-decoration-color:#000000;letter-spacing:normal;word-spacing:normal;text-transform:none;writing-mode:lr-tb;direction:ltr;text-orientation:mixed;dominant-baseline:auto;baseline-shift:baseline;text-anchor:start;white-space:normal;shape-padding:0;shape-margin:0;inline-size:0;clip-rule:nonzero;display:inline;overflow:visible;visibility:visible;isolation:auto;mix-blend-mode:normal;color-interpolation:sRGB;color-interpolation-filters:linearRGB;solid-color:#000000;solid-opacity:1;vector-effect:none;fill:#000000;fill-opacity:1;fill-rule:nonzero;stroke:#000000;stroke-width:0.692123;stroke-linecap:butt;stroke-linejoin:miter;stroke-miterlimit:4;stroke-dasharray:none;stroke-dashoffset:0;stroke-opacity:1;color-rendering:auto;image-rendering:auto;shape-rendering:auto;text-rendering:auto;enable-background:accumulate;stop-color:#000000"
            d="M 7.3365858,28.163056 C 3.3863391,28.086199 -0.11129584,31.2584 0.00271168,35.442062 v 85.448148 c 0,4.0358 3.36875902,7.37685 7.43801822,7.37685 H 108.04853 c 7.71756,0 10.2444,-10.4374 3.22844,-13.91654 L 99.908918,108.7839 c -0.701595,-0.4175 -1.401001,-0.835 -1.962278,-1.39166 L 85.03562,94.587389 C 83.772748,93.474065 82.370106,92.639074 80.686274,92.499905 L 63.847962,90.412426 c -3.087025,-0.278342 -5.61277,-2.643603 -6.314365,-5.705242 L 53.60356,65.919845 c -0.420956,-2.365812 -2.244011,-4.3125 -4.48912,-5.286657 L 41.117339,57.569916 C 39.152866,56.734925 37.609358,55.343267 36.90776,53.394952 l -5.193456,-13.22072 c -0.701598,-1.80915 -2.245658,-3.201347 -4.069797,-4.036343 L 10.104603,28.763749 C 9.1837584,28.372348 8.2481812,28.180791 7.3365858,28.163056 Z M 92.090206,18.811148 C 79.787441,18.931763 68.290168,20.225413 58.189763,22.292619 56.4078,22.703724 55.195636,20.550595 56.372499,19.161281 61.76955,13.105383 72.936812,8.5674799 86.221931,7.4531538 l -0.0353,-3.5424015 C 86.165169,1.7459512 87.835062,0.05661601 90.017809,0.03521953 L 93.589582,2.0548887e-4 C 95.77233,-0.02121849 97.475671,1.6350756 97.497245,3.7998764 l 0.0353,3.5424015 c 13.304725,0.8536785 24.560235,5.1717861 30.076935,11.1206981 1.20432,1.365973 0.13352,3.443068 -1.75451,3.166343 -9.84296,-1.970131 -21.36376,-3.038143 -33.76476,-2.818171 z m 0.05491,5.510449 c 1.984317,-0.0194 3.770204,-0.03697 5.656284,0.04296 l 0.419736,42.115235 c 0.119828,2.065433 -1.648421,3.854141 -3.831174,3.875535 l -3.571776,0.03501 c -2.282949,-0.07602 -3.986293,-1.732297 -3.907671,-3.799672 l -0.41972,-42.115232 c 1.884118,-0.116875 3.670004,-0.134375 5.654321,-0.153843 z"
            id="path855"/>
</svg>
